<?xml version="1.0" encoding="utf-8"?>
<!-- Generator: Adobe Illustrator 17.0.0, SVG Export Plug-In . SVG Version: 6.00 Build 0)  -->
<!DOCTYPE svg PUBLIC "-//W3C//DTD SVG 1.1//EN" "http://www.w3.org/Graphics/SVG/1.1/DTD/svg11.dtd">
<svg version="1.1" id="Camada_1" xmlns="http://www.w3.org/2000/svg" xmlns:xlink="http://www.w3.org/1999/xlink" x="0px" y="0px"
	 width="20px" height="9.979px" viewBox="0 0 20 9.979" enable-background="new 0 0 20 9.979" xml:space="preserve">
<g>
	<g transform="translate(0 0)">
		<path fill="#FFFFFF" d="M1.126,2.716c0.072,0.538,0.54,0.923,1.298,0.922c0.424,0.005,0.835-0.14,1.162-0.41l0.69,0.676
			C3.77,4.374,3.101,4.628,2.41,4.615C0.912,4.62,0.019,3.698,0.015,2.305C0.011,0.983,0.906,0.029,2.316,0.024
			C3.77,0.019,4.68,0.915,4.519,2.704L1.126,2.716z M3.485,1.818C3.413,1.254,2.971,0.973,2.354,0.976
			C1.799,0.935,1.292,1.29,1.141,1.826L3.485,1.818z"/>
		<path fill="#FFFFFF" d="M8.737,0.136l1.064-0.003l0.014,4.344L8.748,4.48V3.846C8.503,4.358,7.826,4.607,7.341,4.617
			C6.054,4.63,5.1,3.84,5.095,2.316C5.09,0.818,6.083,0.03,7.352,0.036c0.552-0.022,1.076,0.243,1.386,0.7L8.737,0.136z
			 M6.169,2.313C6.128,2.999,6.651,3.588,7.337,3.629C7.378,3.631,7.419,3.632,7.46,3.63c1.692-0.006,1.683-2.64-0.009-2.635
			C6.768,0.969,6.193,1.501,6.167,2.184C6.165,2.226,6.166,2.269,6.169,2.311V2.313z"/>
		<path fill="#FFFFFF" d="M13.411,1.275c-0.292-0.268-0.68-0.407-1.076-0.384c-0.512,0.002-0.792,0.161-0.792,0.435
			c0,0.282,0.256,0.44,0.812,0.473c0.82,0.051,1.86,0.231,1.864,1.386c0.003,0.767-0.621,1.43-1.863,1.434
			c-0.751,0.055-1.488-0.227-2.011-0.768l0.526-0.768c0.414,0.37,0.945,0.583,1.5,0.603c0.405,0.007,0.784-0.205,0.782-0.523
			c0-0.3-0.248-0.422-0.865-0.455c-0.82-0.059-1.799-0.355-1.802-1.342c-0.003-1.005,1.035-1.36,1.828-1.363
			c0.617-0.043,1.227,0.161,1.694,0.567L13.411,1.275z"/>
		<g transform="translate(55.634 0.532)">
			<path fill="#FFFFFF" d="M-39.179,1.558l1.14-1.953h1.136v0.04l-1.742,2.736v1.568h-1.068V2.381l-1.67-2.736v-0.04h1.121
				L-39.179,1.558z"/>
		</g>
		<circle fill="#FFFFFF" cx="19.194" cy="3.819" r="0.806"/>
	</g>
	<g>
		<polygon fill="#3273F0" points="6.028,5.529 5.033,8.798 4.081,5.529 3.137,5.529 2.194,8.798 1.198,5.529 0,5.529 1.525,9.9 
			2.777,9.9 3.614,7.159 4.451,9.9 5.702,9.9 7.218,5.529 		"/>
		<path fill="#3273F0" d="M9.406,5.45c-0.049-0.002-0.099-0.001-0.148,0c-1.2-0.041-2.206,0.898-2.247,2.099
			C7.009,7.604,7.009,7.66,7.012,7.715c0,1.251,0.845,2.265,2.256,2.265c1.197,0.054,2.211-0.872,2.265-2.069
			c0.003-0.065,0.003-0.13,0-0.195C11.57,6.502,10.619,5.488,9.406,5.45z M10.448,7.715c0,0.661-0.397,1.278-1.181,1.278
			S8.086,8.376,8.086,7.715c0-0.652,0.405-1.287,1.181-1.287c0.677,0.025,1.206,0.594,1.181,1.271
			C10.448,7.704,10.448,7.709,10.448,7.715z"/>
		<path fill="#3273F0" d="M13.024,6.041l-0.079-0.502h-0.996v4.344h1.076V7.592c-0.007-0.063-0.007-0.127-0.001-0.19
			c0.048-0.551,0.534-0.96,1.085-0.911c0.286-0.013,0.565,0.088,0.775,0.282l0.485-0.934c-0.308-0.273-0.707-0.421-1.119-0.414
			C13.756,5.375,13.279,5.615,13.024,6.041z"/>
		<polygon fill="#3273F0" points="17.975,7.584 19.746,5.601 19.746,5.539 18.46,5.539 16.997,7.284 16.997,5.529 15.922,5.529 
			15.922,9.883 16.998,9.883 16.998,7.918 18.699,9.883 19.993,9.883 19.993,9.804 		"/>
	</g>
</g>
</svg>
